<?xml version="1.0" encoding="UTF-8"?>
<!DOCTYPE svg PUBLIC "-//W3C//DTD SVG 1.1//EN" "http://www.w3.org/Graphics/SVG/1.1/DTD/svg11.dtd">
<svg xmlns="http://www.w3.org/2000/svg" version="1.1" width="524px" height="529px" style="shape-rendering:geometricPrecision; text-rendering:geometricPrecision; image-rendering:optimizeQuality; fill-rule:evenodd; clip-rule:evenodd" xmlns:xlink="http://www.w3.org/1999/xlink">
<g><path style="opacity:0.986" fill="#5ab6da" d="M 247.5,8.5 C 307.729,6.41497 362.396,22.5816 411.5,57C 415.5,60.3333 419.5,63.6667 423.5,67C 363.585,59.7159 307.085,70.5493 254,99.5C 229.945,73.9481 206.445,47.9481 183.5,21.5C 191.541,18.2368 199.875,15.7368 208.5,14C 221.567,11.5773 234.567,9.74393 247.5,8.5 Z"/></g>
<g><path style="opacity:0.99" fill="#5ab6da" d="M 148.5,34.5 C 168.833,65.4329 191.833,94.4329 217.5,121.5C 189.234,142.255 163.234,165.755 139.5,192C 130.192,191.517 120.859,191.517 111.5,192C 106.702,192.655 102.035,193.822 97.5,195.5C 79.6818,160.894 73.5152,124.228 79,85.5C 99.6587,64.9367 122.825,47.9367 148.5,34.5 Z"/></g>
<g><path style="opacity:0.991" fill="#59b6da" d="M 439.5,104.5 C 446.508,104.334 453.508,104.5 460.5,105C 505.743,162.432 523.576,227.598 514,300.5C 512.77,310.085 510.603,319.419 507.5,328.5C 493.062,317.863 478.895,306.863 465,295.5C 473.26,265.258 464.094,242.091 437.5,226C 420.381,218.331 403.548,218.831 387,227.5C 357.308,202.482 328.808,175.982 301.5,148C 344.674,124.212 390.674,109.712 439.5,104.5 Z"/></g>
<g><path style="opacity:0.169" fill="#addbed" d="M 50.5,120.5 C 51.8333,121.167 51.8333,121.167 50.5,120.5 Z"/></g>
<g><path style="opacity:0.983" fill="#5bb6da" d="M 50.5,121.5 C 44.4698,155.729 48.1365,188.895 61.5,221C 40.0372,252.612 40.2039,284.112 62,315.5C 64.0176,317.35 65.8509,319.35 67.5,321.5C 59.3145,349.945 54.1478,378.945 52,408.5C 5.88978,339.157 -5.11022,264.49 19,184.5C 26.3672,161.765 36.8672,140.765 50.5,121.5 Z"/></g>
<g><path style="opacity:0.992" fill="#59b6da" d="M 265.5,169.5 C 296.918,197.584 329.251,224.584 362.5,250.5C 362.833,251.167 363.167,251.833 363.5,252.5C 354.283,276.502 358.616,297.668 376.5,316C 397.69,332.012 420.023,333.678 443.5,321C 445.759,319.285 447.926,317.452 450,315.5C 467.167,327.333 484.333,339.167 501.5,351C 494.316,370.871 484.649,389.371 472.5,406.5C 430.211,413.449 388.544,410.615 347.5,398C 336.692,365.925 314.692,353.592 281.5,361C 277.554,362.306 273.888,364.139 270.5,366.5C 240.766,350.258 213.1,331.091 187.5,309C 197.231,293.572 201.064,276.738 199,258.5C 197.422,249.184 195.089,240.184 192,231.5C 214.932,208.714 239.432,188.048 265.5,169.5 Z"/></g>
<g><path style="opacity:0.991" fill="#59b6da" d="M 151.5,338.5 C 180.548,363.691 212.215,385.191 246.5,403C 247.285,436.784 264.452,455.618 298,459.5C 309.246,458.974 319.413,455.474 328.5,449C 332.733,444.767 336.9,440.6 341,436.5C 373.125,443.396 405.625,446.896 438.5,447C 383.861,498.331 318.861,521.998 243.5,518C 189.886,513.749 142.219,494.916 100.5,461.5C 97.9747,434.53 99.8081,407.864 106,381.5C 109.038,369.013 112.538,356.68 116.5,344.5C 128.804,345.395 140.47,343.395 151.5,338.5 Z"/></g>
</svg>
