<svg id="svg" xmlns="http://www.w3.org/2000/svg" xmlns:xlink="http://www.w3.org/1999/xlink" width="400" height="404.73372781065086" viewBox="0, 0, 400,404.73372781065086"><g id="svgg"><path id="path0" d="M198.430 7.756 C 206.854 32.480,190.217 60.918,142.012 104.188 C 94.363 146.960,70.749 175.054,55.011 207.692 C 17.013 286.496,46.891 363.597,126.510 392.198 C 135.902 395.572,140.323 395.737,134.048 392.481 C 123.318 386.911,107.767 368.486,102.069 354.591 C 91.789 329.523,103.928 292.545,129.118 272.189 C 131.938 269.911,135.392 267.130,136.794 266.009 L 139.344 263.970 138.753 274.342 C 137.418 297.754,156.908 311.230,177.362 301.038 C 195.207 292.145,195.280 273.052,177.549 251.810 C 152.740 222.086,150.773 200.679,170.647 176.695 C 176.965 169.071,177.299 169.044,176.610 176.216 C 175.050 192.451,187.183 205.067,229.586 231.299 C 297.626 273.392,318.187 312.584,295.427 356.805 C 288.558 370.153,264.416 392.899,257.120 392.899 C 256.544 392.899,255.040 393.686,253.776 394.647 C 249.972 397.541,275.466 388.534,287.103 382.872 C 391.978 331.854,396.253 216.732,295.522 156.148 C 284.301 149.399,283.677 149.230,285.246 153.357 C 289.153 163.632,272.802 178.077,257.396 177.961 C 233.228 177.779,221.474 152.939,230.306 120.710 C 232.000 114.527,234.400 105.740,235.639 101.183 C 244.696 67.866,228.944 25.344,199.878 4.647 L 196.567 2.289 198.430 7.756 " stroke="none" fill="#ee4424" fill-rule="evenodd"></path></g></svg>